<?xml version="1.0" encoding="utf-8"?>
<!-- Generator: Adobe Illustrator 24.0.2, SVG Export Plug-In . SVG Version: 6.00 Build 0)  -->
<svg version="1.1" id="Layer_1" xmlns="http://www.w3.org/2000/svg" xmlns:xlink="http://www.w3.org/1999/xlink" x="0px" y="0px"
	 viewBox="0 0 200 200" style="enable-background:new 0 0 200 200;" xml:space="preserve">
<style type="text/css">
	.st0{fill:#D89B2B;}
	.st1{fill:#013443;}
	.st2{fill:#58595B;}
	.st3{fill:#FFFFFF;}
	.st4{fill-rule:evenodd;clip-rule:evenodd;fill:#D6B46D;}
	.st5{fill-rule:evenodd;clip-rule:evenodd;fill:#C5C5C4;}
	.st6{fill:#D3A23E;}
</style>
<g id="mastercard" transform="translate(908 1462)">
	<path id="Path_97" class="st1" d="M-740.08-1421.81h-136.18c-12.74,0.01-23.07,10.34-23.08,23.08v75.56
		c0.01,12.74,10.34,23.06,23.08,23.08h136.18c12.74-0.01,23.06-10.34,23.08-23.08v-75.56
		C-717.01-1411.46-727.34-1421.79-740.08-1421.81z M-876.26-1410.29h136.18c6.38,0.01,11.56,5.18,11.56,11.57v4.54h-159.3v-4.54
		C-887.81-1405.1-882.64-1410.28-876.26-1410.29L-876.26-1410.29z M-728.52-1368.43h-159.3v-14.24h159.3V-1368.43z M-740.08-1311.61
		h-136.18c-6.38-0.01-11.55-5.18-11.56-11.56v-33.74h159.3v33.74C-728.52-1316.79-733.7-1311.62-740.08-1311.61z"/>
	<circle id="Ellipse_2" class="st1" cx="-748.59" cy="-1332.12" r="6.08"/>
	<circle id="Ellipse_3" class="st1" cx="-765.62" cy="-1332.12" r="6.08"/>
</g>
</svg>
