<?xml version="1.0" encoding="utf-8"?>
<!-- Generator: Adobe Illustrator 24.0.2, SVG Export Plug-In . SVG Version: 6.00 Build 0)  -->
<svg version="1.1" id="Layer_1" xmlns="http://www.w3.org/2000/svg" xmlns:xlink="http://www.w3.org/1999/xlink" x="0px" y="0px"
	 viewBox="0 0 200 200" style="enable-background:new 0 0 200 200;" xml:space="preserve">
<style type="text/css">
	.st0{fill:#D89B2B;}
	.st1{fill:#013443;}
	.st2{fill:#58595B;}
	.st3{fill:#FFFFFF;}
	.st4{fill-rule:evenodd;clip-rule:evenodd;fill:#D6B46D;}
	.st5{fill-rule:evenodd;clip-rule:evenodd;fill:#C5C5C4;}
	.st6{fill:#D3A23E;}
</style>
<path id="globe" class="st1" d="M165.55,34.83c-36.57-36.57-95.87-36.57-132.45,0s-36.57,95.87,0,132.45
	c36.57,36.57,95.87,36.57,132.45,0c36.57-36.54,36.61-95.8,0.07-132.38C165.6,34.88,165.57,34.85,165.55,34.83z M165.3,149.47
	c-7.93-7.87-17.2-14.27-27.37-18.88c1.06-7.84,1.68-15.72,1.88-23.63h41.13C179.87,122.33,174.45,137.08,165.3,149.47z
	 M17.71,106.97h41.13c0.19,7.91,0.82,15.79,1.88,23.63c-10.18,4.61-19.45,11-27.37,18.88C24.2,137.08,18.78,122.34,17.71,106.97z
	 M33.35,52.63c7.93,7.87,17.2,14.27,27.37,18.88c-1.06,7.84-1.68,15.72-1.88,23.63H17.71C18.78,79.77,24.2,65.03,33.35,52.63z
	 M180.94,95.14H139.8c-0.19-7.91-0.82-15.79-1.88-23.63c10.18-4.61,19.45-11,27.37-18.88C174.45,65.02,179.87,79.77,180.94,95.14z
	 M99.32,182.88c-6.46,0-13.56-8.21-18.99-21.96c-2.83-7.38-4.98-15-6.4-22.78c16.5-5.39,34.29-5.39,50.79,0
	c-1.43,7.77-3.57,15.4-6.4,22.78C112.89,174.67,105.79,182.88,99.32,182.88z M72.09,126.32c-0.76-6.23-1.23-12.71-1.41-19.35h57.29
	c-0.18,6.64-0.65,13.12-1.41,19.35C108.81,120.92,89.85,120.92,72.09,126.32L72.09,126.32z M70.68,95.14
	c0.18-6.64,0.65-13.12,1.41-19.35c17.75,5.4,36.71,5.4,54.47,0c0.76,6.23,1.23,12.71,1.41,19.35H70.68z M157.6,43.62
	c-6.33,6.42-13.67,11.75-21.73,15.78c-2.56-12.44-6.91-26.47-13.91-37C135.47,26.27,147.75,33.58,157.6,43.62z M118.32,41.18
	c2.83,7.38,4.98,15,6.4,22.78c-16.5,5.39-34.29,5.39-50.79,0c1.43-7.77,3.57-15.4,6.4-22.78c5.43-13.75,12.53-21.96,18.99-21.96
	S112.89,27.44,118.32,41.18L118.32,41.18z M76.69,22.39c-7,10.54-11.35,24.58-13.91,37c-8.06-4.03-15.41-9.36-21.73-15.78
	C50.9,33.57,63.18,26.26,76.69,22.39z M62.78,142.72c2.56,12.44,6.91,26.47,13.91,37c-13.52-3.88-25.8-11.19-35.64-21.23
	C47.38,152.07,54.72,146.74,62.78,142.72z M121.95,179.72c7-10.53,11.35-24.56,13.91-37c8.06,4.03,15.41,9.36,21.73,15.78
	C147.74,168.53,135.47,175.84,121.95,179.72L121.95,179.72z"/>
</svg>
